<?xml version="1.0" encoding="utf-8"?>
<!-- Generator: Adobe Illustrator 25.1.0, SVG Export Plug-In . SVG Version: 6.00 Build 0)  -->
<svg version="1.1" id="OBJECTS" xmlns="http://www.w3.org/2000/svg" xmlns:xlink="http://www.w3.org/1999/xlink" x="0px" y="0px"
	 viewBox="0 0 448 322.67" style="enable-background:new 0 0 448 322.67;" xml:space="preserve">
<style type="text/css">
	.st0{fill:#F3DBC4;}
	.st1{fill:#C7B29E;}
	.st2{fill:#FFFFFF;}
	.st3{fill:#E06A58;}
	.st4{fill:#681B2D;}
	.st5{fill:#232323;}
	.st6{fill:#F9A07B;}
	.st7{fill:#A32341;}
	.st8{fill:#404041;}
	.st9{fill:#98989A;}
	.st10{fill:none;stroke:#232323;stroke-width:2;stroke-linecap:round;stroke-miterlimit:10;}
	.st11{fill:none;stroke:#CC454E;stroke-width:2;stroke-linecap:round;stroke-miterlimit:10;}
	.st12{fill:#CC454E;}
	.st13{fill:#E8729B;}
	.st14{fill:#6F7271;}
	.st15{fill:none;stroke:#6F7271;stroke-width:2;stroke-linecap:round;stroke-miterlimit:10;}
</style>
<g id="XMLID_163_">
	<g id="XMLID_329_">
		<path id="XMLID_110_" class="st0" d="M383.43,303.59c41.71-31.71,60.28-119.65-7.44-162.78c-44.83-28.54-72.72-12.26-123.16-31.14
			C191.26,86.62,182.08,17,107.18,51.26C67.5,69.4,40,120.54,35.16,178.66c-4.74,56.92,15.43,95.98,56.66,122.7
			C188.62,305.48,285.63,304.74,383.43,303.59z"/>
	</g>
	<g id="XMLID_162_">
		<g id="XMLID_160_">
			<g id="XMLID_29_">
				<path id="XMLID_26_" class="st1" d="M250.12,99.43c-1.53-0.17-22.47,7.85-22.47,7.85l10.66-19.15L250.12,99.43z"/>
				<path id="XMLID_30_" class="st1" d="M311.22,65.94c0,12.9-6.03,24.41-15.41,31.84c-6.91,5.48-15.65,8.74-25.16,8.74
					c-9.49,0-18.23-3.25-25.16-8.74c-9.39-7.43-15.41-18.94-15.41-31.84c0-22.41,18.17-40.58,40.58-40.58
					C293.05,25.37,311.22,43.53,311.22,65.94z"/>
				<g id="XMLID_20_">
					<g id="XMLID_31_">
						
							<ellipse id="XMLID_32_" transform="matrix(0.9925 -0.1225 0.1225 0.9925 -4.374 33.5525)" class="st2" cx="270.64" cy="52.34" rx="12.15" ry="12.15"/>
						<path id="XMLID_33_" class="st2" d="M293.66,89c-6.32,5.02-14.31,7.99-23.01,7.99c-8.68,0-16.67-2.98-23.01-7.99
							c2.37-10.44,4.56-19.46,6.83-21.74c3.21-3.21,11.74-5.08,16.17-5.08c4.44,0,13.36,2.27,15.01,3.92
							C289.01,69.45,291.91,78.71,293.66,89z"/>
					</g>
				</g>
			</g>
			<g id="XMLID_34_">
				<g id="XMLID_35_">
					<path id="XMLID_36_" class="st1" d="M238.86,172.99v-25.15c0-6.86,5.56-12.43,12.43-12.43h79.24c6.86,0,12.43,5.56,12.43,12.43
						v25.15c0,6.86-5.56,12.43-12.43,12.43h-79.23C244.44,185.43,238.86,179.86,238.86,172.99z"/>
					<polyline id="XMLID_37_" class="st1" points="272.33,171.67 233.98,209.03 296.14,177.62 					"/>
				</g>
				<g id="XMLID_38_">
					<path id="XMLID_39_" class="st2" d="M248.48,147.22v-0.13c0-1.02,0.83-1.85,1.85-1.85h39.18c1.02,0,1.85,0.83,1.85,1.85v0.13
						c0,1.02-0.83,1.85-1.85,1.85h-39.18C249.31,149.07,248.48,148.24,248.48,147.22z"/>
					<path id="XMLID_40_" class="st2" d="M293.12,147.22v-0.13c0-1.02,0.83-1.85,1.85-1.85h34.19c1.02,0,1.85,0.83,1.85,1.85v0.13
						c0,1.02-0.83,1.85-1.85,1.85h-34.19C293.95,149.07,293.12,148.24,293.12,147.22z"/>
					<path id="XMLID_41_" class="st2" d="M278.19,155.64v-0.13c0-1.02,0.83-1.85,1.85-1.85h49.12c1.02,0,1.85,0.83,1.85,1.85v0.13
						c0,1.02-0.83,1.85-1.85,1.85h-49.12C279.02,157.48,278.19,156.66,278.19,155.64z"/>
					<path id="XMLID_42_" class="st2" d="M248.48,155.64v-0.13c0-1.02,0.83-1.85,1.85-1.85h21.94c1.02,0,1.85,0.83,1.85,1.85v0.13
						c0,1.02-0.83,1.85-1.85,1.85h-21.94C249.31,157.48,248.48,156.66,248.48,155.64z"/>
					<path id="XMLID_43_" class="st2" d="M285.01,164.05v-0.13c0-1.02,0.83-1.85,1.85-1.85h42.3c1.02,0,1.85,0.83,1.85,1.85v0.13
						c0,1.02-0.83,1.85-1.85,1.85h-42.3C285.84,165.9,285.01,165.07,285.01,164.05z"/>
					<path id="XMLID_44_" class="st2" d="M248.48,164.05v-0.13c0-1.02,0.83-1.85,1.85-1.85h29.22c1.02,0,1.85,0.83,1.85,1.85v0.13
						c0,1.02-0.83,1.85-1.85,1.85h-29.22C249.31,165.9,248.48,165.07,248.48,164.05z"/>
					<path id="XMLID_45_" class="st2" d="M248.48,172.47v-0.13c0-1.02,0.83-1.85,1.85-1.85h10.84c1.02,0,1.85,0.83,1.85,1.85v0.13
						c0,1.02-0.83,1.85-1.85,1.85h-10.84C249.31,174.32,248.48,173.49,248.48,172.47z"/>
					<path id="XMLID_46_" class="st2" d="M266.86,172.47v-0.13c0-1.02,0.83-1.85,1.85-1.85h60.45c1.02,0,1.85,0.83,1.85,1.85v0.13
						c0,1.02-0.83,1.85-1.85,1.85h-60.45C267.68,174.32,266.86,173.49,266.86,172.47z"/>
				</g>
			</g>
			<g id="XMLID_25_">
				<path id="XMLID_1_" class="st1" d="M91.96,106.08c1.33-0.62,22.71,0.36,22.71,0.36L99.26,92.29L91.96,106.08z"/>
				
					<ellipse id="XMLID_28_" transform="matrix(0.4219 -0.9067 0.9067 0.4219 -36.093 108.7137)" class="st1" cx="67.2" cy="82.66" rx="37.26" ry="37.26"/>
				<g id="XMLID_159_">
					<g id="XMLID_158_">
						<rect id="XMLID_72_" x="70.25" y="52.26" class="st2" width="2.45" height="30.76"/>
						
							<rect id="XMLID_73_" x="56.74" y="77.31" transform="matrix(-0.5691 -0.8222 0.8222 -0.5691 14.5634 193.4219)" class="st2" width="2.45" height="31.18"/>
						<path id="XMLID_156_" class="st2" d="M74.84,83.47c0,1.86-1.51,3.37-3.37,3.37c-1.86,0-3.37-1.51-3.37-3.37
							c0-1.86,1.51-3.37,3.37-3.37C73.34,80.1,74.84,81.61,74.84,83.47z"/>
					</g>
				</g>
			</g>
		</g>
		<g id="XMLID_161_">
			<g id="XMLID_4_">
				<g id="XMLID_47_">
					<path id="XMLID_65_" class="st3" d="M208.53,242.88c0,0,2.19,20.07,4.64,21.68c4.38,2.89,55.08,9.57,55.08,9.57l-1.66,13.19
						c0,0-69.44,6.24-72.39,2.77c-5.12-6.02-14.12-35.06-14.12-35.06L208.53,242.88z"/>
					<path id="XMLID_64_" class="st4" d="M175.05,191.21l5.61-13.47c0,0,15.22,7.15,20.24,15.98c5.37,9.44,11.94,59.63,11.94,59.63
						s-26.87,6.19-31.81,3.56C176.09,254.28,175.05,191.21,175.05,191.21z"/>
				</g>
				<path id="XMLID_63_" class="st5" d="M132.32,128.69c-3.93-1.44-8.09-2.7-12.3-2.38s-8.51,2.55-9.94,6.25
					c-1.02,2.62-0.55,5.71-2.16,8.07c-1.54,2.26-4.6,3.2-7.46,3.39c-2.87,0.2-5.76-0.18-8.61,0.19
					c-8.8,1.17-15.08,10.73-12.19,18.56c1.15,3.12,3.51,6.1,2.97,9.35c-0.57,3.48-4.22,5.77-5.72,9c-1.99,4.3,0.39,9.51,4.32,12.44
					c3.93,2.92,9.04,4.03,14,4.77c6.83,1.02,13.88,1.5,20.63,0.06c6.75-1.44,13.2-5,16.69-10.56c1.55-2.46,2.49-5.24,4.29-7.55
					c3.72-4.77,10.31-6.62,15.5-10c5.67-3.71,9.83-10.93,6.49-16.58c-3.22-5.43-11.6-6.64-14.96-11.99
					c-1.39-2.21-1.72-4.84-2.62-7.25C140.33,132.04,138.13,130.82,132.32,128.69z"/>
				<g id="XMLID_48_">
					<path id="XMLID_62_" class="st6" d="M155.22,195.3c0.99,1.14,2.16,2.39,3.78,2.5c1.71,0.12,3.14-1.09,4.24-2.26
						c5.68-6.01,9.43-13.39,10.95-21c-1.41-0.8-2.77-1.57-4-2.29c-1.14-0.68-2-1.63-2.49-2.74c-0.34-0.82-0.46-1.68-0.37-2.58
						c0.8-7.52,1.51-11.71,4.15-19.34c-12.54-2.83-24.37-6.19-31.17-11.87c-0.83,3.5-1.81,10.35-3.9,17.14
						c-2.23,7.19-5.71,14.3-11.61,17.36C136.38,177.06,146.71,185.56,155.22,195.3z"/>
					<path id="XMLID_61_" class="st3" d="M167.33,166.94c-0.09,0.9,0.03,1.77,0.37,2.58c-7.42,9-24.01-2.76-31.29-16.65
						c2.09-6.79,3.07-13.64,3.9-17.14c6.79,5.68,18.63,9.05,31.17,11.87C168.84,155.23,168.13,159.41,167.33,166.94z"/>
				</g>
				<g id="XMLID_49_">
					<path id="XMLID_60_" class="st7" d="M187.99,275.74c-1.64,10.86,10.08,22.55,10.37,28.35c-24.89,0-77.03,1.52-103.58-2.09
						c-1.21-6.7,11.9-21.77,11.9-36.65c0-1.97-0.08-4.13-0.24-6.45c-0.42-6.64-1.4-14.54-2.49-22.64
						c-2.96-21.73-6.9-44.97-3.99-49.79c5.7-9.39,19.03-15.77,25.64-18.51c2.27-0.94,3.75-1.45,3.86-1.51
						c8.29,14.14,25.16,26.2,31.53,25.66c1.77-0.14,7.02-1.97,10.49-19.44c1.35,0.77,2.7,1.48,4.04,2.17
						c6.59,3.43,12.77,6.26,14.55,10.67c4.7,11.61,9.31,40.88,8.29,51.29c-1.03,10.5-5.25,18.52-8.21,29.06
						c-0.69,2.47-1.32,5.09-1.83,7.91C188.19,274.4,188.09,275.06,187.99,275.74z"/>
					<path id="XMLID_59_" class="st4" d="M198.36,304.09c-24.89,0-77.03,1.52-103.58-2.09c-1.21-6.7,11.9-21.77,11.9-36.65
						c0-1.97-0.08-4.13-0.24-6.45c-0.42-6.64-1.4-14.54-2.49-22.64c4.71,4.97,11.58-16.03,14.62-9.88
						c16.45,33.2,29.42,41.93,51.96,41.93c6.72,0,12.92-0.93,19.62-2.45c-0.69,2.47-1.32,5.09-1.83,7.91
						c-0.12,0.64-0.23,1.3-0.33,1.98C186.35,286.59,198.07,298.28,198.36,304.09z"/>
					<path id="XMLID_58_" class="st4" d="M175.52,174.84c-1.07,7.77-4.24,18.24-13.46,21c-12.46,3.73-30.49-19.55-36.46-27.88
						c2.27-0.94,3.75-1.45,3.86-1.51c8.29,14.14,25.16,26.2,31.53,25.66c1.77-0.14,7.02-1.97,10.49-19.44
						C172.83,173.43,174.18,174.14,175.52,174.84z"/>
				</g>
				<g id="XMLID_50_">
					<g id="XMLID_51_">
						<g id="XMLID_52_">
							<polygon id="XMLID_57_" class="st8" points="180.64,292.4 180.55,301.07 335.55,301.99 335.87,292.16 							"/>
						</g>
						<g id="XMLID_53_">
							<polygon id="XMLID_56_" class="st8" points="402.73,215.05 399.28,211.55 286.38,210.81 229.74,292.72 232.7,295.1 							
								"/>
							<polygon id="XMLID_55_" class="st5" points="288.56,212.84 232.7,294.1 339.4,294.63 402.73,214.05 							"/>
						</g>
					</g>
					<ellipse id="XMLID_54_" class="st8" cx="315.52" cy="259.5" rx="12.42" ry="6.21"/>
				</g>
				<g id="XMLID_114_">
					<g id="XMLID_115_">
						
							<ellipse id="XMLID_116_" transform="matrix(0.1832 -0.9831 0.9831 0.1832 25.2032 301.7834)" class="st9" cx="194.21" cy="135.72" rx="17.39" ry="11.47"/>
					</g>
					<path id="XMLID_117_" class="st5" d="M205.5,108.19c-1.16,8.22-4.83,17.28-10.18,27.29c-1.88-8.2-3.08-18.19-4.74-28.18
						c-1.69-10.01-3.84-20.02-7.57-28.2c-0.84-1.81-1.75-3.54-2.74-5.14c2.21-0.21,4.45,0,6.58,0.59c3.33,0.89,6.45,2.61,9,4.91
						c4.24,3.77,7.08,8.91,8.77,14.33C206.01,98.29,206.26,103.07,205.5,108.19z"/>
					<g id="XMLID_118_">
						<path id="XMLID_119_" class="st6" d="M199.22,116.69c-0.06,1.62-0.17,3.27-0.32,4.91c-2.28,26.6-13.45,44.85-30.54,44.85
							c-24.13,0-39.77-27.06-39.77-53.57c0-26.15,16.02-45.08,34.77-42.89c10.81,1.24,18.71,4.83,24.32,10.09
							c3.71,3.5,6.39,7.73,8.22,12.54c2.09,5.39,3.1,11.49,3.31,18.06c0,0.02,0.02,0.04,0.02,0.06
							C199.31,112.68,199.29,114.66,199.22,116.69z"/>
						<path id="XMLID_120_" class="st3" d="M199.22,116.69c-0.72-2.57-1.79-5.08-3.25-7.33c-14.23,7.44-31.19,10.31-47.27,7.59
							c-3.06,2.55-6.05,5.06-9.06,7.57c0.06-12.1,0.23-20.29,4.95-26.15c4.43-5.5,11.82-7.57,18.82-8.47
							c7.88-1.03,15.89-0.99,23.75,0.15c3.01,0.42,6.13,1.07,8.75,2.59c2.09,5.39,3.1,11.49,3.31,18.06c0,0.02,0.02,0.04,0.02,0.06
							C199.31,112.68,199.29,114.66,199.22,116.69z"/>
					</g>
					<path id="XMLID_121_" class="st5" d="M202.7,100.31c-3.31,2.8-7.46,5.12-12.12,7c-13.26,5.35-30.49,7.12-43.92,6.47
						c-6.6,14.5-9.27,19.7-10.96,32.35c-6.45-6.05-11.7-17.13-13.26-25.84c-1.54-8.68-1.39-17.79,1.03-26.32
						c3.81-13.45,13.42-20.65,20.08-24.15c1.66-0.91,3.16-1.54,4.32-2c8.51-3.29,18.1-2.99,26.83-0.32
						c4.76,1.48,8.77,3.98,12.14,7.06c6.81,6.15,11.02,14.48,13.74,20.72C201.44,97.19,202.13,98.92,202.7,100.31z"/>
					<path id="XMLID_122_" class="st8" d="M205.5,108.19c-0.55-2.91-1.37-5.73-2.53-8.45c-0.65-1.54-1.45-3.03-2.38-4.47
						c-3.03-4.76-7.44-8.68-12.77-10.41c-1.52-2.13-3.12-4.05-4.8-5.75c-6.05-6.15-13.15-9.67-20.67-10.9
						c-6.26-1.01-12.77-0.44-18.78,1.6c1.66-0.91,3.16-1.54,4.32-2c8.51-3.29,18.1-2.99,26.83-0.32c4.76,1.48,8.77,3.98,12.14,7.06
						c3.33,0.89,6.45,2.61,9,4.91c4.24,3.77,7.08,8.91,8.77,14.33C206.01,98.29,206.26,103.07,205.5,108.19z"/>
					<g id="XMLID_123_">
						<g id="XMLID_124_">
							<path id="XMLID_125_" class="st10" d="M154.35,124.5c4.46-2.55,9.09-3.7,15.58-1.33"/>
							<path id="XMLID_126_" class="st10" d="M184.89,124.32c3.82-2.85,9.48-3.14,12.43,0"/>
							<path id="XMLID_127_" class="st11" d="M180.28,138.86c0.39,2.02,0.18,6.49-0.78,8.5"/>
							<ellipse id="XMLID_128_" class="st5" cx="165.21" cy="137.32" rx="1.84" ry="2.9"/>
							<ellipse id="XMLID_129_" class="st5" cx="189.26" cy="135.97" rx="1.84" ry="2.9"/>
						</g>
						<g id="XMLID_130_">
							<path id="XMLID_131_" class="st12" d="M178,151.31c0,0-0.36,0.7-1.05,1.65c-1.08,1.45-2.92,3.45-5.43,4.23h-0.01
								c-1.06,0.34-2.21,0.46-3.49,0.23c-3.76-0.67-4.75-4.14-4.93-6.81c-0.04-0.52-0.04-1-0.03-1.44c0.02-1.08,0.14-1.8,0.14-1.8
								C169.19,150.67,178,151.31,178,151.31z"/>
							<path id="XMLID_132_" class="st2" d="M178,151.31c0,0-0.36,0.7-1.05,1.65c-3.06-0.04-9.32-1.61-13.89-3.79
								c0.02-1.08,0.14-1.8,0.14-1.8C169.19,150.67,178,151.31,178,151.31z"/>
							<path id="XMLID_133_" class="st13" d="M171.51,157.18c-1.06,0.34-2.21,0.46-3.49,0.23c-3.76-0.67-4.75-4.14-4.93-6.81
								c1.82,0.22,3.58,0.92,5.04,2.03C169.66,153.8,170.83,155.39,171.51,157.18z"/>
						</g>
					</g>
					<g id="XMLID_134_">
						<path id="XMLID_135_" class="st14" d="M135.76,119.91c0,0-0.21-12.47,4.98-24.86c6.51-15.55,19.78-22.2,32.65-22.65
							c15.51-0.55,25.22,9.86,25.22,9.86s-5.05-8.91-15.01-11.47c-6.54-1.68-16.41-1.95-24.33,1.27
							c-8.16,3.31-18.33,12.5-22.01,22.21c-3.67,9.71-5.46,24.83-5.46,24.83L135.76,119.91z"/>
						<g id="XMLID_136_">
							
								<ellipse id="XMLID_137_" transform="matrix(0.9946 -0.1034 0.1034 0.9946 -13.1568 14.5354)" class="st9" cx="133.61" cy="134.16" rx="12.09" ry="18.32"/>
							
								<ellipse id="XMLID_138_" transform="matrix(0.9889 -0.1486 0.1486 0.9889 -18.6858 20.8809)" class="st14" cx="130.39" cy="135.49" rx="7.85" ry="13.81"/>
						</g>
						<g id="XMLID_139_">
							<ellipse id="XMLID_140_" class="st14" cx="173.49" cy="162.81" rx="6.44" ry="4.01"/>
							<path id="XMLID_141_" class="st15" d="M141.14,149.4c0,0,9.46,12.16,25.91,13.41"/>
						</g>
					</g>
				</g>
				<g id="XMLID_142_">
					<g id="XMLID_143_">
						<g id="XMLID_144_">
							<g id="XMLID_145_">
								<path id="XMLID_146_" class="st6" d="M180.55,269.25l-0.62,15.99c0,0-57.83,17.33-67.38,11.85
									c-4.66-2.68-9.01-17.42-12.26-31.81c-3.4-15.12-5.58-29.84-5.58-29.84l33.9-6.64c0,0,0.02,20.67,1.17,32.62
									c0.41,4.45,1,7.69,1.79,8.22C134.56,271.61,180.55,269.25,180.55,269.25z"/>
								<path id="XMLID_147_" class="st3" d="M129.78,261.4c-6.16,2-18.05,5.09-29.49,3.87c-3.4-15.12-5.58-29.84-5.58-29.84
									l33.9-6.64C128.61,228.78,128.63,249.45,129.78,261.4z"/>
							</g>
							<g id="XMLID_148_">
								<path id="XMLID_149_" class="st6" d="M178.9,269.41c8.6-1.84,23.16-6.26,29.2-7.78c4.29-1.08,15.46,4.7,18.41,10.15
									c1.29,2.38,2.51,15.86-1.96,14.47c-2.24-0.7-1.87-6.48-2.57-8.84c-0.57-1.92-2.39-3.78-5.16-5.38
									c1.85,4.61,1.78,8.63,1.58,13.61c-0.04,1.1-0.11,2.25-0.64,3.2c-0.54,0.95-1.7,1.63-2.7,1.21c-1.02-0.42-1.37-1.69-1.6-2.8
									c-0.79-3.84-1.59-7.68-1.91-12.02c0.08,4.27-0.01,8.55-0.28,12.81c-0.2,3.26-1.82,5.05-3.81,4.48
									c-0.89-0.25-1.25-1.07-1.63-2.15c-0.6,2.09-2.1,4.4-4.04,3.52c-1.18-0.53-1.91-4.79-1.7-9.17
									c-3.72,2.31-7.92,3.29-12.76,3.51c-4.34,0.2-8.78-0.61-11.39-3.56C176.2,280.06,177.72,273.24,178.9,269.41z"/>
							</g>
						</g>
						<path id="XMLID_151_" class="st4" d="M124.8,195.26c-2.46-6.93-11.47-21.11-11.47-21.11s-13.75,5.72-18.63,15.43
							c-8.26,16.44-4.06,63.64-4.06,63.64c11.13,4.66,33.47,4.73,42.98,3.39C133.62,256.61,129.73,209.11,124.8,195.26z"/>
					</g>
				</g>
			</g>
			<rect id="XMLID_3_" x="26.57" y="299.14" class="st5" width="394.28" height="9.89"/>
		</g>
	</g>
</g>
</svg>
